# xmcd
#
# Track frame offsets:
#	150
#	14018
#	27714
#	44639
#	62963
#	76642
#	90355
#	110936
#	122152
#	137175
#	161323
#	176687
#	189561
#	212367
#	227360
#	247340
#	261741
#	279380
#	301768
#
# Disc length: 4259 seconds
#
# Revision: 0
# Processed by: cddbd v1.5.2PL0 Copyright (c) Steve Scherf et al.
# Submitted via: audiograbber 1.83.01
#
DISCID=1310a113
DTITLE=Jerry Jeff Walker - From Vinyl Records 4
DYEAR=1900
DGENRE=Country
TTITLE0=Dealing With The Devil
TTITLE1=Don't Think Twice, It's Alright
TTITLE2=Old '59
TTITLE3=Green Back Dollar
TTITLE4=Lovin' Of The Game
TTITLE5=Laying My Life On The Line
TTITLE6=Still Around
TTITLE7=Promise
TTITLE8=Tangee
TTITLE9=Wind
TTITLE10=Takin' It As It Comes
TTITLE11=Bittersweet
TTITLE12=Some Go Home
TTITLE13=Morning Song To Sally
TTITLE14=For Little Jesse
TTITLE15=Charlie Dunn - Live at Kerrville
TTITLE16=For Little Jesse - Live at Kerrville
TTITLE17=Hill Country Rain - Live at Kerrville
TTITLE18=Gypsy Songman - Live at Kerrville
EXTD=
EXTT0=
EXTT1=
EXTT2=
EXTT3=
EXTT4=
EXTT5=
EXTT6=
EXTT7=
EXTT8=
EXTT9=
EXTT10=
EXTT11=
EXTT12=
EXTT13=
EXTT14=
EXTT15=
EXTT16=
EXTT17=
EXTT18=
PLAYORDER=
